<svg width="20" height="20" viewBox="0 0 20 20" fill="none" xmlns="http://www.w3.org/2000/svg">
<path d="M19.5959 13.5088C19.5959 14.7678 18.5723 15.7893 17.3119 15.7893H3.28398C2.02279 15.7893 1 14.769 1 13.5088C1 12.3095 1.92786 11.325 3.10509 11.2349V7.19283C3.10509 3.21961 6.32502 0 10.2979 0C14.2708 0 17.4908 3.22017 17.4908 7.19283V11.2349C18.6666 11.3249 19.5959 12.3093 19.5959 13.5088ZM17.3146 12.9826C16.4423 12.9826 15.7364 12.277 15.7364 11.403V7.19287C15.7364 4.18911 13.3019 1.75458 10.2979 1.75458C7.29379 1.75458 4.85932 4.18861 4.85932 7.19287V11.403C4.85932 12.2748 4.152 12.9826 3.28116 12.9826C2.99064 12.9826 2.75421 13.219 2.75421 13.5088C2.75421 13.7991 2.99064 14.035 3.28384 14.035H17.3117C17.604 14.035 17.8414 13.7981 17.8414 13.5088C17.8414 13.2195 17.604 12.9826 17.3144 12.9826H17.3146ZM6.96454 16.6665H8.71889C8.71889 17.5386 9.4257 18.2456 10.2977 18.2456C11.1698 18.2456 11.8766 17.5386 11.8766 16.6665H13.6309C13.6309 18.5075 12.1387 20 10.2977 20C8.45674 20 6.96454 18.5075 6.96454 16.6665Z" fill="#7F7989"/>
<circle cx="18" cy="2" r="2" fill="#F8785E"/>
</svg>
