<svg width="20" height="20" viewBox="0 0 20 20" fill="none" xmlns="http://www.w3.org/2000/svg">
<path d="M10 1.00033C9.73695 1.00033 9.48478 1.10479 9.2987 1.29071C9.11278 1.47662 9.00832 1.72895 9.00832 1.99201V11.2001L6.77683 9.26364C6.50756 9.04313 6.14247 8.97984 5.81458 9.09692C5.48685 9.21401 5.24455 9.49435 5.17606 9.83577C5.10758 10.177 5.22293 10.5293 5.4801 10.7638L9.35044 14.1182C9.53065 14.2739 9.76066 14.3595 9.99883 14.3595C10.2368 14.3595 10.467 14.2739 10.6472 14.1182L14.5248 10.7662C14.7932 10.5338 14.9172 10.1756 14.85 9.82696C14.7829 9.4783 14.5348 9.19189 14.1992 9.07567C13.8637 8.95963 13.4917 9.03123 13.2232 9.26366L10.9919 11.1975L10.9918 1.99167C10.9918 1.72862 10.8873 1.47628 10.7014 1.29037C10.5153 1.10446 10.2631 1 10.0001 1L10 1.00033Z" fill="white"/>
<path d="M16.5207 5.04901H13.719C13.3646 5.04901 13.0372 5.23804 12.8601 5.54483C12.683 5.85181 12.683 6.22988 12.8601 6.53666C13.0372 6.84346 13.3646 7.03248 13.719 7.03248H16.5207C16.6521 7.03248 16.7782 7.08471 16.8712 7.17775C16.9643 7.27063 17.0165 7.39687 17.0165 7.52831V15.5441C17.0165 15.6757 16.9643 15.8018 16.8712 15.8948C16.7782 15.9879 16.6521 16.0401 16.5207 16.0401H3.47934C3.20557 16.0401 2.98352 15.8181 2.98352 15.5441V7.52832C2.98352 7.25455 3.20558 7.0325 3.47934 7.0325H6.28104C6.6354 7.0325 6.96276 6.84347 7.13986 6.53667C7.31696 6.22987 7.31696 5.8518 7.13986 5.54485C6.96276 5.23804 6.63536 5.04902 6.28104 5.04902H3.47934C2.82178 5.04902 2.19123 5.31034 1.72618 5.77521C1.2613 6.24026 1 6.87081 1 7.52836V15.5442C1 16.2018 1.26132 16.8324 1.72618 17.2975C2.19123 17.7624 2.82178 18.0235 3.47934 18.0235H16.5207C17.1782 18.0235 17.8088 17.7623 18.2738 17.2975C18.7387 16.8324 19 16.2019 19 15.5442V7.52836C19 6.87081 18.7387 6.24026 18.2738 5.77521C17.8088 5.31033 17.1782 5.04902 16.5207 5.04902V5.04901Z" fill="white"/>
</svg>
