<svg width="35" height="39" viewBox="0 0 35 39" fill="none" xmlns="http://www.w3.org/2000/svg">
<g clip-path="url(#clip0_14_65)">
<path fill-rule="evenodd" clip-rule="evenodd" d="M13.3188 1.64272C15.794 0.213658 18.8436 0.213658 21.3188 1.64272L30.6393 7.02392C33.1145 8.45298 34.6393 11.094 34.6393 13.9521V24.7145C34.6393 27.5727 33.1145 30.2137 30.6393 31.6427L21.3188 37.0239C18.8436 38.453 15.794 38.453 13.3188 37.0239L3.99829 31.6427C1.52308 30.2137 -0.00170898 27.5727 -0.00170898 24.7145V13.9521C-0.00170898 11.094 1.52308 8.45298 3.99829 7.02392L13.3188 1.64272Z" fill="url(#paint0_linear_14_65)"/>
<path fill-rule="evenodd" clip-rule="evenodd" d="M15.5842 17.8457C16.6154 17.2458 17.8869 17.236 18.9272 17.82L25.9404 21.7572C26.5135 22.079 26.5135 22.9041 25.9404 23.2258L18.9272 27.1631C17.8869 27.7471 16.6154 27.7373 15.5843 27.1373L8.85029 23.2194C8.29209 22.8947 8.29209 22.0884 8.85029 21.7637L15.5842 17.8457Z" fill="white"/>
<path opacity="0.9" fill-rule="evenodd" clip-rule="evenodd" d="M15.5842 17.7501C16.6154 17.1502 17.8869 17.1404 18.9272 17.7244L25.9404 21.6616C26.5135 21.9834 26.5135 22.8084 25.9404 23.1302L18.9272 27.0675C17.8869 27.6515 16.6154 27.6417 15.5843 27.0417L8.85029 23.1238C8.29209 22.799 8.29209 21.9928 8.85029 21.668L15.5842 17.7501Z" fill="url(#paint1_linear_14_65)"/>
<path fill-rule="evenodd" clip-rule="evenodd" d="M15.5842 14.3564C16.6154 13.7565 17.8869 13.7467 18.9272 14.3307L25.9404 18.2679C26.5135 18.5897 26.5135 19.4147 25.9404 19.7365L18.9272 23.6738C17.8869 24.2578 16.6154 24.248 15.5843 23.648L8.85029 19.7301C8.29209 19.4053 8.29209 18.5991 8.85029 18.2743L15.5842 14.3564Z" fill="white"/>
<path fill-rule="evenodd" clip-rule="evenodd" d="M15.5842 14.2414C16.6154 13.6414 17.8869 13.6317 18.9272 14.2157L25.9404 18.1529C26.5135 18.4747 26.5135 19.2997 25.9404 19.6215L18.9272 23.5587C17.8869 24.1427 16.6154 24.133 15.5843 23.533L8.85029 19.6151C8.29209 19.2903 8.29209 18.4841 8.85029 18.1593L15.5842 14.2414Z" fill="url(#paint2_linear_14_65)"/>
<path fill-rule="evenodd" clip-rule="evenodd" d="M15.5842 10.7327C16.6154 10.1327 17.8869 10.123 18.9272 10.707L25.9404 14.6442C26.5135 14.966 26.5135 15.791 25.9404 16.1128L18.9272 20.05C17.8869 20.634 16.6154 20.6243 15.5843 20.0243L8.85029 16.1064C8.29209 15.7816 8.29209 14.9754 8.85029 14.6506L15.5842 10.7327Z" fill="white"/>
</g>
<defs>
<linearGradient id="paint0_linear_14_65" x1="19.196" y1="-17.2297" x2="-11.6575" y2="15.9228" gradientUnits="userSpaceOnUse">
<stop stop-color="#32C5FF"/>
<stop offset="0.53397" stop-color="#B620E0"/>
<stop offset="1" stop-color="#FFAA12"/>
</linearGradient>
<linearGradient id="paint1_linear_14_65" x1="19.1302" y1="18.871" x2="8.98033" y2="24.3143" gradientUnits="userSpaceOnUse">
<stop stop-color="white" stop-opacity="0.475"/>
<stop offset="1" stop-color="white" stop-opacity="0.273"/>
</linearGradient>
<linearGradient id="paint2_linear_14_65" x1="21.1487" y1="16.7441" x2="13.1225" y2="21.4378" gradientUnits="userSpaceOnUse">
<stop stop-color="white" stop-opacity="0.201"/>
<stop offset="1" stop-color="white" stop-opacity="0.698"/>
</linearGradient>
<clipPath id="clip0_14_65">
<rect width="35" height="39" fill="white"/>
</clipPath>
</defs>
</svg>
