<svg width="134" height="39" viewBox="0 0 134 39" fill="none" xmlns="http://www.w3.org/2000/svg">
<g clip-path="url(#clip0_14_162)">
<path fill-rule="evenodd" clip-rule="evenodd" d="M91.6204 10.6288C92.3401 10.6288 92.9557 10.3883 93.467 9.90716C93.9784 9.42606 94.2341 8.84845 94.2341 8.17421C94.2341 7.50754 93.9784 6.93368 93.467 6.45261C92.9557 5.97155 92.3363 5.73102 91.6091 5.73102C90.8969 5.73102 90.2833 5.97155 89.7682 6.45261C89.253 6.93368 88.9954 7.50754 88.9954 8.17421C88.9954 8.84845 89.253 9.42606 89.7682 9.90716C90.2833 10.3883 90.9007 10.6288 91.6204 10.6288ZM60.7273 29.6004C59.2803 30.3087 57.5947 30.6629 55.6705 30.6629C53.7386 30.6629 52.0493 30.3087 50.6023 29.6004C49.1553 28.892 48.0303 27.9015 47.2273 26.6288C46.4243 25.3561 46.0227 23.8712 46.0227 22.1742V7.06057H50.9432V21.7538C50.9432 22.6402 51.1383 23.428 51.5284 24.1174C51.9186 24.8068 52.4697 25.3485 53.1818 25.7424C53.8939 26.1364 54.7235 26.3333 55.6705 26.3333C56.625 26.3333 57.4564 26.1364 58.1648 25.7424C58.8731 25.3485 59.4224 24.8068 59.8125 24.1174C60.2027 23.428 60.3977 22.6402 60.3977 21.7538V7.06057H65.3182V22.1742C65.3182 23.8712 64.9148 25.3561 64.108 26.6288C63.3011 27.9015 62.1742 28.892 60.7273 29.6004ZM74.1182 20.2424V30.3333H69.2773V12.8788H73.8909V15.9583H74.0955C74.4818 14.9432 75.1296 14.1383 76.0387 13.5436C76.9478 12.9489 78.05 12.6515 79.3455 12.6515C80.5576 12.6515 81.6144 12.9167 82.5159 13.447C83.4174 13.9773 84.1182 14.733 84.6182 15.714C85.1182 16.6951 85.3682 17.8636 85.3682 19.2197V30.3333H80.5273V20.0833C80.5349 19.0152 80.2621 18.1799 79.7091 17.5777C79.1561 16.9754 78.3947 16.6742 77.425 16.6742C76.7735 16.6742 76.1996 16.8144 75.7034 17.0947C75.2072 17.375 74.8209 17.7822 74.5443 18.3163C74.2678 18.8504 74.1258 19.4924 74.1182 20.2424ZM94.0182 12.8788V30.3333H89.1772V12.8788H94.0182ZM104.864 30.572C105.492 30.5492 106.026 30.4867 106.466 30.3845C106.905 30.2822 107.246 30.1932 107.489 30.1174L106.727 26.5152C106.606 26.5379 106.432 26.5701 106.204 26.6117C105.977 26.6534 105.75 26.6742 105.523 26.6742C105.197 26.6742 104.911 26.625 104.665 26.5265C104.418 26.428 104.227 26.2557 104.091 26.0095C103.954 25.7633 103.886 25.4167 103.886 24.9697V16.5153L107.17 16.5152V12.8788L103.886 12.8793V8.69693H99.045V12.8793L96.659 12.8788V16.5152L99.045 16.5153V25.6061C99.039 26.646 99.235 27.5232 99.635 28.2375L99.761 28.447C100.246 29.197 100.926 29.75 101.801 30.1061C102.579 30.4226 103.472 30.5804 104.48 30.5797C104.606 30.5797 104.734 30.577 104.864 30.572ZM116.37 36.3049C115.522 36.6875 114.499 36.8788 113.302 36.8788C112.689 36.8788 112.115 36.8314 111.581 36.7367C111.046 36.642 110.605 36.5227 110.257 36.3788L111.348 32.7652C111.916 32.9394 112.429 33.0341 112.887 33.0492C113.346 33.0644 113.743 32.9583 114.081 32.7311C114.418 32.5038 114.692 32.1174 114.904 31.572L115.189 30.8333L108.927 12.8788H114.018L117.632 25.697H117.814L121.461 12.8788L126.586 12.9015L119.802 32.2197C119.476 33.1591 119.035 33.9792 118.478 34.6799C117.921 35.3807 117.219 35.9224 116.37 36.3049Z" fill="white"/>
<path d="M133.605 30.333V25.318H128.589V30.333H133.605Z" fill="white"/>
<path fill-rule="evenodd" clip-rule="evenodd" d="M13.3188 1.64272C15.794 0.213658 18.8436 0.213658 21.3188 1.64272L30.6393 7.02392C33.1145 8.45298 34.6393 11.094 34.6393 13.9521V24.7145C34.6393 27.5727 33.1145 30.2137 30.6393 31.6427L21.3188 37.0239C18.8436 38.453 15.794 38.453 13.3188 37.0239L3.99829 31.6427C1.52308 30.2137 -0.00170898 27.5727 -0.00170898 24.7145V13.9521C-0.00170898 11.094 1.52308 8.45298 3.99829 7.02392L13.3188 1.64272Z" fill="url(#paint0_linear_14_162)"/>
<path fill-rule="evenodd" clip-rule="evenodd" d="M15.5842 17.8457C16.6154 17.2458 17.8869 17.236 18.9272 17.82L25.9404 21.7572C26.5135 22.079 26.5135 22.9041 25.9404 23.2258L18.9272 27.1631C17.8869 27.7471 16.6154 27.7373 15.5843 27.1373L8.85029 23.2194C8.29209 22.8947 8.29209 22.0884 8.85029 21.7637L15.5842 17.8457Z" fill="white"/>
<path opacity="0.9" fill-rule="evenodd" clip-rule="evenodd" d="M15.5842 17.7501C16.6154 17.1502 17.8869 17.1404 18.9272 17.7244L25.9404 21.6616C26.5135 21.9834 26.5135 22.8084 25.9404 23.1302L18.9272 27.0675C17.8869 27.6515 16.6154 27.6417 15.5843 27.0417L8.85029 23.1238C8.29209 22.799 8.29209 21.9928 8.85029 21.668L15.5842 17.7501Z" fill="url(#paint1_linear_14_162)"/>
<path fill-rule="evenodd" clip-rule="evenodd" d="M15.5842 14.3564C16.6154 13.7565 17.8869 13.7467 18.9272 14.3307L25.9404 18.2679C26.5135 18.5897 26.5135 19.4147 25.9404 19.7365L18.9272 23.6738C17.8869 24.2578 16.6154 24.248 15.5843 23.648L8.85029 19.7301C8.29209 19.4053 8.29209 18.5991 8.85029 18.2743L15.5842 14.3564Z" fill="white"/>
<path fill-rule="evenodd" clip-rule="evenodd" d="M15.5842 14.2414C16.6154 13.6414 17.8869 13.6317 18.9272 14.2157L25.9404 18.1529C26.5135 18.4747 26.5135 19.2997 25.9404 19.6215L18.9272 23.5587C17.8869 24.1427 16.6154 24.133 15.5843 23.533L8.85029 19.6151C8.29209 19.2903 8.29209 18.4841 8.85029 18.1593L15.5842 14.2414Z" fill="url(#paint2_linear_14_162)"/>
<path fill-rule="evenodd" clip-rule="evenodd" d="M15.5842 10.7327C16.6154 10.1327 17.8869 10.123 18.9272 10.707L25.9404 14.6442C26.5135 14.966 26.5135 15.791 25.9404 16.1128L18.9272 20.05C17.8869 20.634 16.6154 20.6243 15.5843 20.0243L8.85029 16.1064C8.29209 15.7816 8.29209 14.9754 8.85029 14.6506L15.5842 10.7327Z" fill="white"/>
</g>
<defs>
<linearGradient id="paint0_linear_14_162" x1="19.196" y1="-17.2297" x2="-11.6575" y2="15.9228" gradientUnits="userSpaceOnUse">
<stop stop-color="#32C5FF"/>
<stop offset="0.53397" stop-color="#B620E0"/>
<stop offset="1" stop-color="#FFAA12"/>
</linearGradient>
<linearGradient id="paint1_linear_14_162" x1="19.1302" y1="18.871" x2="8.98033" y2="24.3143" gradientUnits="userSpaceOnUse">
<stop stop-color="white" stop-opacity="0.475"/>
<stop offset="1" stop-color="white" stop-opacity="0.273"/>
</linearGradient>
<linearGradient id="paint2_linear_14_162" x1="21.1487" y1="16.7441" x2="13.1225" y2="21.4378" gradientUnits="userSpaceOnUse">
<stop stop-color="white" stop-opacity="0.201"/>
<stop offset="1" stop-color="white" stop-opacity="0.698"/>
</linearGradient>
<clipPath id="clip0_14_162">
<rect width="134" height="39" fill="white"/>
</clipPath>
</defs>
</svg>
