<svg width="20" height="20" viewBox="0 0 20 20" fill="none" xmlns="http://www.w3.org/2000/svg">
<line x1="7" y1="3" x2="17" y2="3" stroke="#fff" stroke-width="2" stroke-linecap="round"/>
<line x1="7" y1="18" x2="17" y2="18" stroke="#fff" stroke-width="2" stroke-linecap="round"/>
<path d="M3.70938 6.32426L0.332892 9.70409C0.285289 9.75174 0.261571 9.82313 0.213968 9.87078C0.166365 9.94217 0.118923 9.98982 0.0950392 10.0612C0.0474363 10.204 -2.03399e-07 10.3468 -1.97158e-07 10.4896C-1.90917e-07 10.6323 0.0237173 10.7751 0.0950393 10.9179C0.118757 10.9893 0.166365 11.0369 0.213968 11.1083C0.261571 11.156 0.285289 11.2274 0.332892 11.275L3.70938 14.6787C4.1373 15.1071 4.85068 15.1071 5.27877 14.6787C5.70669 14.2504 5.70669 13.5363 5.27877 13.1078L3.78071 11.6082L16.8824 11.6082C17.5006 11.6082 18 11.1083 18 10.4896C18 9.87082 17.5006 9.3709 16.8824 9.3709L3.80449 9.3709L5.30255 7.87135C5.73047 7.44301 5.73047 6.72892 5.30255 6.30041C4.85073 5.89597 4.13738 5.89597 3.70942 6.32431L3.70938 6.32426Z" fill="#fff"/>
</svg>
