<svg aria-hidden="true" style="position: absolute; width: 0; height: 0; overflow: hidden;" version="1.1" xmlns="http://www.w3.org/2000/svg" xmlns:xlink="http://www.w3.org/1999/xlink">
<defs>
<symbol id="icon-exchange" viewBox="0 0 32 32">
<path d="M10.947 24.889h-3.368v-12.444h3.368v12.444zM17.684 24.889h-3.368v-17.778h3.368v17.778zM24.421 24.889h-3.368v-7.111h3.368v7.111zM28.632 28.622h-25.263v-25.067h25.263v25.067zM28.632 0h-25.263c-1.853 0-3.368 1.6-3.368 3.556v24.889c0 1.956 1.516 3.556 3.368 3.556h25.263c1.853 0 3.368-1.6 3.368-3.556v-24.889c0-1.956-1.516-3.556-3.368-3.556z"></path>
</symbol>
<symbol id="icon-home" viewBox="0 0 32 32">
<path d="M2.193 0h9.513c1.211 0 2.193 1.211 2.193 2.193v9.513c0 1.211-0.982 2.193-2.193 2.193h-9.513c-1.211 0-2.193-1.211-2.193-2.193v-9.513c0-1.211 0.982-2.193 2.193-2.193z"></path>
<path d="M20.29 0h9.517c1.211 0 2.193 1.211 2.193 2.193v9.513c0 1.211-0.982 2.193-2.193 2.193h-9.517c-1.211 0-2.193-1.211-2.193-2.193v-9.513c0-1.211 0.982-2.193 2.193-2.193z"></path>
<path d="M2.193 18.097h9.513c1.211 0 2.193 1.211 2.193 2.193v9.517c0 1.211-0.982 2.193-2.193 2.193h-9.513c-1.211 0-2.193-1.211-2.193-2.193v-9.517c0-1.211 0.982-2.193 2.193-2.193z"></path>
<path d="M20.29 18.097h9.517c1.211 0 2.193 1.211 2.193 2.193v9.517c0 1.211-0.982 2.193-2.193 2.193h-9.517c-1.211 0-2.193-1.211-2.193-2.193v-9.517c0-1.211 0.982-2.193 2.193-2.193z"></path>
</symbol>
</defs>
</svg>
